<svg width="3840" height="2160" viewBox="0 0 3840 2160" fill="none" xmlns="http://www.w3.org/2000/svg">
<g clip-path="url(#clip0_210_6)">
<rect width="3840" height="2160" fill="#232136"/>
<path d="M1474.97 902.6C1474.97 921 1472.37 937.8 1467.17 953C1461.97 967.8 1452.77 980.6 1439.57 991.4C1426.77 1001.8 1408.97 1010 1386.17 1016C1363.37 1022 1334.37 1025 1299.17 1025C1264.37 1025 1235.57 1022 1212.77 1016C1190.37 1010 1172.57 1001.8 1159.37 991.4C1146.57 980.6 1137.57 967.8 1132.37 953C1127.57 937.8 1125.17 921 1125.17 902.6V805.4C1125.17 797.8 1126.77 792.4 1129.97 789.2C1133.57 785.6 1139.17 783.8 1146.77 783.8H1233.77C1241.37 783.8 1246.77 785.6 1249.97 789.2C1253.57 792.4 1255.37 797.8 1255.37 805.4V878.6C1255.37 886.6 1257.77 893.4 1262.57 899C1267.77 904.2 1279.57 906.8 1297.97 906.8C1315.17 906.8 1325.97 904.2 1330.37 899C1335.17 893.4 1337.57 886.6 1337.57 878.6V605.6C1337.57 598 1339.17 592.6 1342.37 589.4C1345.97 585.8 1351.57 584 1359.17 584H1453.37C1460.97 584 1466.37 585.8 1469.57 589.4C1473.17 592.6 1474.97 598 1474.97 605.6V902.6ZM1402.97 638V888.2C1402.97 910.6 1395.77 928.8 1381.37 942.8C1366.97 956.4 1339.97 963.2 1300.37 963.2C1259.17 963.2 1230.97 956.4 1215.77 942.8C1200.97 929.2 1193.57 911 1193.57 888.2V840.8H1187.57V888.2C1187.57 900.2 1189.17 911.2 1192.37 921.2C1195.97 931.2 1201.97 939.8 1210.37 947C1218.77 953.8 1230.17 959.2 1244.57 963.2C1259.37 967.2 1277.97 969.2 1300.37 969.2C1342.77 969.2 1371.37 961.6 1386.17 946.4C1401.37 931.2 1408.97 911.8 1408.97 888.2V638H1402.97ZM1769.17 1394.2C1769.17 1383.4 1769.97 1373.4 1771.57 1364.2C1773.57 1355 1775.97 1346.4 1778.77 1338.4L1817.17 1240C1821.17 1230 1825.57 1221.6 1830.37 1214.8C1835.17 1207.6 1843.57 1204 1855.57 1204H1914.37C1925.57 1204 1933.57 1207.6 1938.37 1214.8C1943.17 1221.6 1947.77 1230.2 1952.17 1240.6L1993.57 1338.4C1996.37 1346.4 1998.57 1355 2000.17 1364.2C2002.17 1373.4 2003.17 1383.4 2003.17 1394.2V1412.8H1769.17V1394.2ZM1865.17 1270L1836.97 1361.2H1931.17L1902.97 1270C1901.37 1266.4 1899.57 1263.8 1897.57 1262.2C1895.97 1260.6 1893.97 1259.8 1891.57 1259.8H1876.57C1874.17 1259.8 1871.97 1260.6 1869.97 1262.2C1868.37 1263.8 1866.77 1266.4 1865.17 1270ZM2003.17 1522H2009.17V1394.2C2009.17 1383 2008.17 1372.8 2006.17 1363.6C2004.57 1354 2002.17 1344.8 1998.97 1336L1957.57 1238.2C1952.77 1226.6 1947.57 1217 1941.97 1209.4C1936.77 1201.8 1927.57 1198 1914.37 1198H1855.57C1841.97 1198 1832.37 1201.8 1826.77 1209.4C1821.17 1217 1816.17 1226.4 1811.77 1237.6L1773.37 1336C1770.17 1344.8 1767.57 1354 1765.57 1363.6C1763.97 1372.8 1763.17 1383 1763.17 1394.2V1522H1769.17V1418.8H2003.17V1522ZM1830.97 1554.4C1830.97 1562 1829.17 1567.6 1825.57 1571.2C1822.37 1574.4 1816.97 1576 1809.37 1576H1721.17C1713.57 1576 1707.97 1574.4 1704.37 1571.2C1701.17 1567.6 1699.57 1562 1699.57 1554.4V1396C1699.57 1384 1701.37 1370.2 1704.97 1354.6C1708.97 1339 1714.97 1320.8 1722.97 1300L1775.17 1163.8C1777.57 1157 1781.17 1152 1785.97 1148.8C1791.17 1145.6 1797.77 1144 1805.77 1144H1967.17C1974.77 1144 1980.97 1145.6 1985.77 1148.8C1990.97 1152 1994.77 1157 1997.17 1163.8L2049.37 1300C2057.37 1320.8 2063.17 1339 2066.77 1354.6C2070.77 1370.2 2072.77 1384 2072.77 1396V1554.4C2072.77 1562 2070.97 1567.6 2067.37 1571.2C2064.17 1574.4 2058.77 1576 2051.17 1576H1960.57C1952.57 1576 1946.57 1574.4 1942.57 1571.2C1938.97 1567.6 1937.17 1562 1937.17 1554.4V1470.4H1830.97V1554.4Z" fill="#EB6F92"/>
<path d="M1922.85 902.6C1922.85 921 1920.05 937.8 1914.45 953C1909.25 967.8 1899.65 980.6 1885.65 991.4C1872.05 1001.8 1853.25 1010 1829.25 1016C1805.25 1022 1774.65 1025 1737.45 1025C1700.25 1025 1669.65 1022 1645.65 1016C1621.65 1010 1602.65 1001.8 1588.65 991.4C1575.05 980.6 1565.45 967.8 1559.85 953C1554.65 937.8 1552.05 921 1552.05 902.6V605.6C1552.05 598 1553.65 592.6 1556.85 589.4C1560.45 585.8 1566.05 584 1573.65 584H1667.85C1675.45 584 1680.85 585.8 1684.05 589.4C1687.65 592.6 1689.45 598 1689.45 605.6V879.2C1689.45 887.2 1692.45 894 1698.45 899.6C1704.45 904.8 1717.85 907.4 1738.65 907.4C1759.85 907.4 1773.45 904.8 1779.45 899.6C1785.45 894 1788.45 887.2 1788.45 879.2V605.6C1788.45 598 1790.05 592.6 1793.25 589.4C1796.85 585.8 1802.45 584 1810.05 584H1901.25C1908.85 584 1914.25 585.8 1917.45 589.4C1921.05 592.6 1922.85 598 1922.85 605.6V902.6ZM1618.05 638V888.2C1618.05 912.2 1626.25 931.8 1642.65 947C1659.45 961.8 1691.25 969.2 1738.05 969.2C1784.85 969.2 1816.65 961.8 1833.45 947C1850.25 931.8 1858.65 912.2 1858.65 888.2V638H1852.65V888.2C1852.65 910.6 1844.65 928.8 1828.65 942.8C1812.65 956.4 1782.45 963.2 1738.05 963.2C1693.65 963.2 1663.45 956.4 1647.45 942.8C1631.85 928.8 1624.05 910.6 1624.05 888.2V638H1618.05ZM2348.45 1204C2369.65 1204 2385.25 1209.8 2395.25 1221.4C2405.65 1233 2410.85 1248 2410.85 1266.4V1308.4C2410.85 1330.4 2406.65 1347.4 2398.25 1359.4C2389.85 1371.4 2373.25 1377.4 2348.45 1377.4H2217.65V1204H2348.45ZM2282.45 1252V1328.8H2327.45C2337.85 1328.8 2344.85 1326.2 2348.45 1321C2352.05 1315.4 2353.85 1308.6 2353.85 1300.6V1280.2C2353.85 1272.2 2352.05 1265.6 2348.45 1260.4C2344.85 1254.8 2337.85 1252 2327.45 1252H2282.45ZM2217.65 1522V1382.8H2387.45C2410.25 1382.8 2427.05 1387.8 2437.85 1397.8C2448.65 1407.4 2454.05 1422 2454.05 1441.6V1522H2460.05V1441.6C2460.05 1420.8 2454.05 1405 2442.05 1394.2C2430.05 1383 2411.85 1377.4 2387.45 1377.4H2380.85C2395.25 1373 2404.85 1365 2409.65 1353.4C2414.45 1341.4 2416.85 1326.2 2416.85 1307.8V1266.4C2416.85 1246.8 2411.25 1230.6 2400.05 1217.8C2388.85 1204.6 2371.65 1198 2348.45 1198H2211.65V1522H2217.65ZM2260.85 1576H2168.45C2160.85 1576 2155.25 1574.4 2151.65 1571.2C2148.45 1567.6 2146.85 1562 2146.85 1554.4V1165.6C2146.85 1158 2148.45 1152.6 2151.65 1149.4C2155.25 1145.8 2160.85 1144 2168.45 1144H2368.25C2413.05 1144 2443.85 1153.4 2460.65 1172.2C2477.85 1190.6 2486.45 1214.6 2486.45 1244.2V1271.8C2486.45 1288.6 2483.85 1303 2478.65 1315C2473.85 1326.6 2465.25 1335 2452.85 1340.2C2474.45 1342.6 2491.85 1351.4 2505.05 1366.6C2518.65 1381.8 2525.45 1402 2525.45 1427.2V1554.4C2525.45 1562 2523.65 1567.6 2520.05 1571.2C2516.85 1574.4 2511.45 1576 2503.85 1576H2410.85C2403.25 1576 2397.65 1574.4 2394.05 1571.2C2390.85 1567.6 2389.25 1562 2389.25 1554.4V1462.6C2389.25 1453.8 2387.45 1447.4 2383.85 1443.4C2380.65 1439 2374.85 1436.8 2366.45 1436.8H2282.45V1554.4C2282.45 1562 2280.65 1567.6 2277.05 1571.2C2273.85 1574.4 2268.45 1576 2260.85 1576Z" fill="#F6C177"/>
<path d="M2203.11 1016H2013.51C2005.91 1016 2000.31 1014.4 1996.71 1011.2C1993.51 1007.6 1991.91 1002 1991.91 994.4V924.2C1991.91 916.6 1993.51 911.2 1996.71 908C2000.31 904.4 2005.91 902.6 2013.51 902.6H2174.91C2180.11 902.6 2183.91 901 2186.31 897.8C2189.11 894.2 2190.51 890 2190.51 885.2C2190.51 878.4 2189.11 873.4 2186.31 870.2C2183.91 867 2180.11 865.2 2174.91 864.8L2084.91 852.2C2056.91 848.2 2034.31 839 2017.11 824.6C2000.31 810.2 1991.91 786.2 1991.91 752.6V689.6C1991.91 655.6 2002.91 629.6 2024.91 611.6C2046.91 593.2 2077.31 584 2116.11 584H2284.11C2291.71 584 2297.11 585.8 2300.31 589.4C2303.91 592.6 2305.71 598 2305.71 605.6V677C2305.71 684.6 2303.91 690.2 2300.31 693.8C2297.11 697 2291.71 698.6 2284.11 698.6H2144.31C2139.11 698.6 2135.11 700.4 2132.31 704C2129.51 707.2 2128.11 711.4 2128.11 716.6C2128.11 721.8 2129.51 726.2 2132.31 729.8C2135.11 733.4 2139.11 735.4 2144.31 735.8L2233.71 747.8C2261.71 751.8 2284.31 761 2301.51 775.4C2318.71 789.8 2327.31 813.8 2327.31 847.4V910.4C2327.31 944.4 2316.11 970.6 2293.71 989C2271.71 1007 2241.51 1016 2203.11 1016ZM2251.71 638H2118.51C2100.11 638 2085.31 643.2 2074.11 653.6C2062.91 663.6 2057.31 676.6 2057.31 692.6V741.8C2057.31 758.2 2060.51 769.6 2066.91 776C2073.71 782 2082.31 786 2092.71 788L2219.31 813.8C2230.51 816.2 2239.31 821 2245.71 828.2C2252.51 835 2255.91 847.8 2255.91 866.6V901.4C2255.91 917.4 2250.31 930.6 2239.11 941C2228.31 951 2213.71 956 2195.31 956H2045.91V962H2195.31C2215.71 962 2231.91 956.4 2243.91 945.2C2255.91 933.6 2261.91 919 2261.91 901.4V866.6C2261.91 845.8 2257.91 831.4 2249.91 823.4C2242.31 815.4 2232.51 810.2 2220.51 807.8L2093.91 782C2084.71 780.4 2077.31 776.8 2071.71 771.2C2066.11 765.6 2063.31 755.8 2063.31 741.8V692.6C2063.31 678.6 2068.31 667 2078.31 657.8C2088.31 648.6 2101.71 644 2118.51 644H2251.71V638ZM2778.58 1576H2681.38C2673.78 1576 2668.18 1574.4 2664.58 1571.2C2661.38 1567.6 2659.78 1562 2659.78 1554.4V1259.8H2571.58C2563.98 1259.8 2558.38 1258.2 2554.78 1255C2551.58 1251.4 2549.98 1245.8 2549.98 1238.2V1165.6C2549.98 1158 2551.58 1152.6 2554.78 1149.4C2558.38 1145.8 2563.98 1144 2571.58 1144H2888.38C2895.98 1144 2901.38 1145.8 2904.58 1149.4C2908.18 1152.6 2909.98 1158 2909.98 1165.6V1238.2C2909.98 1245.8 2908.18 1251.4 2904.58 1255C2901.38 1258.2 2895.98 1259.8 2888.38 1259.8H2800.18V1554.4C2800.18 1562 2798.38 1567.6 2794.78 1571.2C2791.58 1574.4 2786.18 1576 2778.58 1576ZM2726.98 1522H2732.98V1204H2855.98V1198H2603.98V1204H2726.98V1522Z" fill="#EA9A97"/>
<path d="M2591.08 1016H2493.88C2486.28 1016 2480.68 1014.4 2477.08 1011.2C2473.88 1007.6 2472.28 1002 2472.28 994.4V699.8H2384.08C2376.48 699.8 2370.88 698.2 2367.28 695C2364.08 691.4 2362.48 685.8 2362.48 678.2V605.6C2362.48 598 2364.08 592.6 2367.28 589.4C2370.88 585.8 2376.48 584 2384.08 584H2700.88C2708.48 584 2713.88 585.8 2717.08 589.4C2720.68 592.6 2722.48 598 2722.48 605.6V678.2C2722.48 685.8 2720.68 691.4 2717.08 695C2713.88 698.2 2708.48 699.8 2700.88 699.8H2612.68V994.4C2612.68 1002 2610.88 1007.6 2607.28 1011.2C2604.08 1014.4 2598.68 1016 2591.08 1016ZM2539.48 962H2545.48V644H2668.48V638H2416.48V644H2539.48V962Z" fill="#3E8FB0"/>
<path d="M1154.87 1576H965.266C957.666 1576 952.066 1574.4 948.466 1571.2C945.266 1567.6 943.666 1562 943.666 1554.4V1484.2C943.666 1476.6 945.266 1471.2 948.466 1468C952.066 1464.4 957.666 1462.6 965.266 1462.6H1126.67C1131.87 1462.6 1135.67 1461 1138.07 1457.8C1140.87 1454.2 1142.27 1450 1142.27 1445.2C1142.27 1438.4 1140.87 1433.4 1138.07 1430.2C1135.67 1427 1131.87 1425.2 1126.67 1424.8L1036.67 1412.2C1008.67 1408.2 986.066 1399 968.866 1384.6C952.066 1370.2 943.666 1346.2 943.666 1312.6V1249.6C943.666 1215.6 954.666 1189.6 976.666 1171.6C998.666 1153.2 1029.07 1144 1067.87 1144H1235.87C1243.47 1144 1248.87 1145.8 1252.07 1149.4C1255.67 1152.6 1257.47 1158 1257.47 1165.6V1237C1257.47 1244.6 1255.67 1250.2 1252.07 1253.8C1248.87 1257 1243.47 1258.6 1235.87 1258.6H1096.07C1090.87 1258.6 1086.87 1260.4 1084.07 1264C1081.27 1267.2 1079.87 1271.4 1079.87 1276.6C1079.87 1281.8 1081.27 1286.2 1084.07 1289.8C1086.87 1293.4 1090.87 1295.4 1096.07 1295.8L1185.47 1307.8C1213.47 1311.8 1236.07 1321 1253.27 1335.4C1270.47 1349.8 1279.07 1373.8 1279.07 1407.4V1470.4C1279.07 1504.4 1267.87 1530.6 1245.47 1549C1223.47 1567 1193.27 1576 1154.87 1576ZM1203.47 1198H1070.27C1051.87 1198 1037.07 1203.2 1025.87 1213.6C1014.67 1223.6 1009.07 1236.6 1009.07 1252.6V1301.8C1009.07 1318.2 1012.27 1329.6 1018.67 1336C1025.47 1342 1034.07 1346 1044.47 1348L1171.07 1373.8C1182.27 1376.2 1191.07 1381 1197.47 1388.2C1204.27 1395 1207.67 1407.8 1207.67 1426.6V1461.4C1207.67 1477.4 1202.07 1490.6 1190.87 1501C1180.07 1511 1165.47 1516 1147.07 1516H997.666V1522H1147.07C1167.47 1522 1183.67 1516.4 1195.67 1505.2C1207.67 1493.6 1213.67 1479 1213.67 1461.4V1426.6C1213.67 1405.8 1209.67 1391.4 1201.67 1383.4C1194.07 1375.4 1184.27 1370.2 1172.27 1367.8L1045.67 1342C1036.47 1340.4 1029.07 1336.8 1023.47 1331.2C1017.87 1325.6 1015.07 1315.8 1015.07 1301.8V1252.6C1015.07 1238.6 1020.07 1227 1030.07 1217.8C1040.07 1208.6 1053.47 1204 1070.27 1204H1203.47V1198Z" fill="#9CCFD8"/>
<path d="M1542.84 1576H1445.64C1438.04 1576 1432.44 1574.4 1428.84 1571.2C1425.64 1567.6 1424.04 1562 1424.04 1554.4V1259.8H1335.84C1328.24 1259.8 1322.64 1258.2 1319.04 1255C1315.84 1251.4 1314.24 1245.8 1314.24 1238.2V1165.6C1314.24 1158 1315.84 1152.6 1319.04 1149.4C1322.64 1145.8 1328.24 1144 1335.84 1144H1652.64C1660.24 1144 1665.64 1145.8 1668.84 1149.4C1672.44 1152.6 1674.24 1158 1674.24 1165.6V1238.2C1674.24 1245.8 1672.44 1251.4 1668.84 1255C1665.64 1258.2 1660.24 1259.8 1652.64 1259.8H1564.44V1554.4C1564.44 1562 1562.64 1567.6 1559.04 1571.2C1555.84 1574.4 1550.44 1576 1542.84 1576ZM1491.24 1522H1497.24V1204H1620.24V1198H1368.24V1204H1491.24V1522Z" fill="#C4A7E7"/>
</g>
<defs>
<clipPath id="clip0_210_6">
<rect width="3840" height="2160" fill="white"/>
</clipPath>
</defs>
</svg>
